<?xml version="1.0" encoding="UTF-8" standalone="no"?>
<svg
   xmlns:dc="http://purl.org/dc/elements/1.1/"
   xmlns:cc="http://creativecommons.org/ns#"
   xmlns:rdf="http://www.w3.org/1999/02/22-rdf-syntax-ns#"
   xmlns:svg="http://www.w3.org/2000/svg"
   xmlns="http://www.w3.org/2000/svg"
   xmlns:sodipodi="http://sodipodi.sourceforge.net/DTD/sodipodi-0.dtd"
   xmlns:inkscape="http://www.inkscape.org/namespaces/inkscape"
   version="1.1"
   id="Layer_1"
   x="0px"
   y="0px"
   viewBox="0 0 30 30"
   enable-background="new 0 0 30 30"
   xml:space="preserve"
   sodipodi:docname="Facebook_icon_(black).svg"
   inkscape:version="1.0.2 (e86c8708, 2021-01-15)"><metadata
   id="metadata2567"><rdf:RDF><cc:Work
       rdf:about=""><dc:format>image/svg+xml</dc:format><dc:type
         rdf:resource="http://purl.org/dc/dcmitype/StillImage" /><dc:title></dc:title></cc:Work></rdf:RDF></metadata><defs
   id="defs2565" /><sodipodi:namedview
   pagecolor="#ffffff"
   bordercolor="#666666"
   borderopacity="1"
   objecttolerance="10"
   gridtolerance="10"
   guidetolerance="10"
   inkscape:pageopacity="0"
   inkscape:pageshadow="2"
   inkscape:window-width="1440"
   inkscape:window-height="798"
   id="namedview2563"
   showgrid="false"
   inkscape:zoom="20.633333"
   inkscape:cx="14.006462"
   inkscape:cy="15.145773"
   inkscape:window-x="0"
   inkscape:window-y="25"
   inkscape:window-maximized="0"
   inkscape:current-layer="g3145"
   inkscape:pagecheckerboard="true" />

<g
   id="g3145"><path
     id="circle2559"
     d="M 14.886719 -0.19335938 A 15 15 0 0 0 0 14.806641 A 15 15 0 0 0 15 29.806641 A 15 15 0 0 0 30 14.806641 A 15 15 0 0 0 15 -0.19335938 A 15 15 0 0 0 14.886719 -0.19335938 z M 17.300781 6.0996094 C 18.400781 6.0996094 19.399219 6.1992188 19.699219 6.1992188 L 19.699219 9.0996094 L 18 9.0996094 C 16.7 9.0996094 16.400391 9.6996094 16.400391 10.599609 L 16.400391 12.599609 L 19.5 12.599609 L 19.099609 15.800781 L 16.400391 15.800781 L 16.400391 23.900391 L 13.199219 23.900391 L 13.199219 15.800781 L 10.5 15.800781 L 10.5 12.599609 L 13.199219 12.599609 L 13.199219 10.300781 C 13.199219 7.6007812 14.900781 6.0996094 17.300781 6.0996094 z "
     style="fill:#ffffff" /><text
     xml:space="preserve"
     style="font-style:normal;font-weight:normal;font-size:13.3333px;line-height:1.25;font-family:sans-serif;fill:#000000;fill-opacity:1;stroke:none"
     x="-2.4717286"
     y="8.19063"
     id="text3171"><tspan
       sodipodi:role="line"
       id="tspan3169"
       x="-2.4717286"
       y="8.19063" /></text></g>
</svg>
